<?xml version="1.0" encoding="UTF-8"?>
<svg width="24px" height="24px" viewBox="0 0 24 24" version="1.1" xmlns="http://www.w3.org/2000/svg" xmlns:xlink="http://www.w3.org/1999/xlink">
    <!-- Generator: Sketch 52.2 (67145) - http://www.bohemiancoding.com/sketch -->
    <title>icon-locations-24x24</title>
    <desc>Created with Sketch.</desc>
    <g id="icon-locations-24x24" stroke="none" stroke-width="1" fill="none" fill-rule="evenodd">
        <path d="M12.0165192,5.33097345 L15.5469027,17.4584071 L12.0141593,13.359292 L8.47905605,17.4584071 L12.0165192,5.33097345 Z M12.500295,22.9262537 C12.519174,22.8719764 12.5309735,22.8153392 12.5309735,22.7563422 L12.5309735,21.4938053 C12.5309735,21.2011799 12.2926254,20.9628319 12,20.9628319 C11.7073746,20.9628319 11.4690265,21.2011799 11.4690265,21.4938053 L11.4690265,22.7563422 C11.4690265,22.8153392 11.480826,22.8743363 11.499705,22.9262537 C5.82654867,22.6690265 1.26725664,18.0696165 1.07138643,12.379941 C1.16814159,12.4743363 1.2979351,12.5309735 1.44188791,12.5309735 L2.70442478,12.5309735 C2.99705015,12.5309735 3.23539823,12.2926254 3.23539823,12 C3.23539823,11.7073746 2.99705015,11.4690265 2.70442478,11.4690265 L1.44188791,11.4690265 C1.2979351,11.4690265 1.16814159,11.5256637 1.07138643,11.620059 C1.26961652,5.89026549 5.89026549,1.26725664 11.620059,1.07138643 C11.5256637,1.16578171 11.4690265,1.2979351 11.4690265,1.44188791 L11.4690265,2.70442478 C11.4690265,2.99705015 11.7073746,3.23539823 12,3.23539823 C12.2926254,3.23539823 12.5309735,2.99705015 12.5309735,2.70442478 L12.5309735,1.44188791 C12.5309735,1.2979351 12.4719764,1.16578171 12.379941,1.07138643 C18.0696165,1.26725664 22.6690265,5.82654867 22.9262537,11.499705 C22.8719764,11.480826 22.8153392,11.4690265 22.7563422,11.4690265 L21.4938053,11.4690265 C21.2011799,11.4690265 20.9628319,11.7073746 20.9628319,12 C20.9628319,12.2926254 21.2011799,12.5309735 21.4938053,12.5309735 L22.7563422,12.5309735 C22.8176991,12.5309735 22.8719764,12.519174 22.9262537,12.500295 C22.6713864,18.1333333 18.1356932,22.6690265 12.500295,22.9262537 Z M12,6.68098811e-16 C5.38289086,6.68098811e-16 0,5.38289086 0,12 C0,18.6171091 5.38289086,24 12,24 C18.6171091,24 24,18.6171091 24,12 C24,5.38289086 18.6171091,0 12,0 Z" id="icon-compass" fill="#171617" fill-rule="nonzero"></path>
    </g>
</svg>