<?xml version="1.0" encoding="UTF-8"?>
<svg width="24px" height="24px" viewBox="0 0 24 24" version="1.1" xmlns="http://www.w3.org/2000/svg" xmlns:xlink="http://www.w3.org/1999/xlink">
    <!-- Generator: Sketch 52.2 (67145) - http://www.bohemiancoding.com/sketch -->
    <title>icon-routing-numbers-24x24</title>
    <desc>Created with Sketch.</desc>
    <g id="icon-routing-numbers-24x24" stroke="none" stroke-width="1" fill="none" fill-rule="evenodd">
        <path d="M13.9129286,15.2134505 L7.17764418,15.2134505 L7.17764418,14.5158222 L13.9129286,14.5158222 L13.9129286,15.2134505 Z M14.8689965,14.5158222 L21.6042809,14.5158222 L21.6042809,15.2134505 L14.8689965,15.2134505 L14.8689965,14.5158222 Z M21.6042809,13.2775319 L7.17605866,13.2775319 L7.17605866,12.5799035 L21.6042809,12.5799035 L21.6042809,13.2775319 Z M4.90242452,13.9371077 C4.90242452,13.7706283 4.85168792,13.6422012 4.74862919,13.5518266 C4.64557046,13.4614521 4.49336064,13.3948603 4.2888287,13.3520513 L3.63242386,13.2156966 C3.24714276,13.1395917 2.94589417,12.996895 2.73026359,12.7876065 C2.5130475,12.578318 2.40523221,12.2929246 2.40523221,11.9314263 C2.40523221,11.5509018 2.53048821,11.2448966 2.77941468,11.0149964 C3.02834115,10.7850961 3.34861597,10.6455705 3.73865363,10.5980049 L3.73865363,9.97806699 L4.33163771,9.97806699 L4.33163771,10.5980049 C4.54568276,10.6217877 4.75180022,10.6677677 4.94840457,10.732774 C5.14500892,10.7993658 5.32575808,10.8786417 5.48748101,10.9690163 L5.19416001,11.5540728 C5.00389773,11.4494286 4.80570787,11.3717381 4.59800489,11.322587 C4.39030191,11.2718504 4.20162516,11.2480676 4.03038911,11.2480676 C3.76402193,11.2480676 3.55631895,11.3035608 3.41045121,11.4161327 C3.26299795,11.5287045 3.18847856,11.6809143 3.18847856,11.8759331 C3.18847856,12.0376561 3.24080069,12.1660831 3.34544494,12.2612142 C3.45008919,12.3563454 3.602299,12.4229372 3.80207439,12.4609896 L4.42993988,12.5830746 C4.89608245,12.6782057 5.22269935,12.8367576 5.4113761,13.0571447 C5.59846733,13.2791174 5.69359847,13.5502411 5.69359847,13.873687 C5.69359847,14.2684812 5.56358592,14.585585 5.30514633,14.8265839 C5.04512123,15.0659972 4.70740569,15.2102794 4.2888287,15.257845 L4.2888287,15.8920526 L3.69743014,15.8920526 L3.69743014,15.2721147 C3.41679329,15.2483319 3.14566955,15.1944243 2.88405893,15.1119773 C2.62244831,15.0295303 2.39413358,14.9201295 2.19911475,14.7869459 L2.50670542,14.1654225 C2.71599392,14.3128757 2.9490652,14.4254476 3.20591927,14.5015525 C3.46277334,14.5776574 3.71804188,14.6157099 3.97013939,14.6157099 C4.27931558,14.6157099 4.51238687,14.5522891 4.66935324,14.4270331 C4.82631961,14.3017771 4.90559556,14.1384687 4.90559556,13.9386933 L4.90242452,13.9371077 Z M23.3023717,17.4157363 L0.697628328,17.4157363 L0.697628328,6.69762833 L23.3023717,6.69762833 L23.3023717,17.4157363 Z M24,6 L0,6 L0,18.1133646 L24,18.1133646 L24,6 Z" id="icon-check-new" fill="#171617" fill-rule="nonzero"></path>
    </g>
</svg>