<?xml version="1.0" encoding="UTF-8"?>
<svg width="24px" height="24px" viewBox="0 0 24 24" version="1.1" xmlns="http://www.w3.org/2000/svg" xmlns:xlink="http://www.w3.org/1999/xlink">
    <!-- Generator: Sketch 52.2 (67145) - http://www.bohemiancoding.com/sketch -->
    <title>icon-customer-service-24x24</title>
    <desc>Created with Sketch.</desc>
    <g id="icon-customer-service-24x24" stroke="none" stroke-width="1" fill="none" fill-rule="evenodd">
        <path d="M22.217109,22.6012695 C22.0255337,22.8274668 21.7462492,22.9590306 21.4484996,22.9590306 L3.04572984,22.9590306 C2.74798027,22.9590306 2.4686958,22.829775 2.27712049,22.6012695 C2.07862078,22.3658396 1.99783602,22.0565493 2.05784756,21.7541835 C2.33713203,20.3416042 3.08958443,19.000577 4.2298037,17.8788229 C5.00072119,17.119446 5.94244075,16.5401039 7.0942007,16.1154068 L12.2482688,21.3271783 L17.4000287,16.1154068 C18.5517887,16.5377957 19.4935083,17.119446 20.2644257,17.8788229 C21.404645,19.000577 22.1547893,20.3416042 22.4363819,21.7541835 C22.4963934,22.0565493 22.4156087,22.3658396 22.217109,22.6012695 M10.607184,15.3606463 C10.9995671,15.3190998 11.5973744,15.2960185 12.2482688,15.2960185 C12.8991632,15.2960185 13.4969705,15.3190998 13.8893536,15.3606463 C14.7641372,15.4506636 15.5581361,15.5868436 16.2828908,15.7714945 L12.2482688,19.8522793 L8.21364675,15.7714945 C8.93609337,15.5868436 9.73009222,15.4506636 10.607184,15.3606463 M23.4565781,21.5533756 C23.1357472,19.9353722 22.2840449,18.407386 20.9937968,17.1402193 C19.3734852,15.5476053 17.15075,14.6543566 13.9955279,14.3289094 C13.5708308,14.2850548 12.9337852,14.2596653 12.2482688,14.2596653 C11.5627523,14.2596653 10.9257068,14.2850548 10.5010097,14.3289094 C7.34578755,14.6543566 5.1230524,15.5476053 3.50274081,17.1402193 C2.21249268,18.4096942 1.36079043,19.9353722 1.0399595,21.5533756 C0.917628284,22.1673399 1.07919782,22.7928448 1.48312165,23.2729371 C1.87319666,23.7345643 2.44099816,24 3.04572984,24 L21.4484996,24 C22.0532313,24 22.6210328,23.7345643 23.0111078,23.2729371 C23.4150316,22.7951529 23.5766012,22.1673399 23.4542699,21.5533756 M12.2482688,1.04096942 C15.3111655,1.04096942 17.8016444,3.53144836 17.8016444,6.59434507 C17.8016444,9.65724178 15.3111655,12.1477207 12.2482688,12.1477207 C9.18768022,12.1477207 6.69489314,9.65724178 6.69489314,6.59434507 C6.69489314,3.53144836 9.18537208,1.04096942 12.2482688,1.04096942 M12.2482688,13.1840739 C15.8835833,13.1840739 18.8403057,10.2273514 18.8403057,6.59203693 C18.8403057,2.95672245 15.8835833,0 12.2482688,0 C8.61295431,0 5.65623186,2.95672245 5.65623186,6.59203693 C5.65623186,10.2273514 8.61295431,13.1840739 12.2482688,13.1840739" id="icon-customer-service" fill="#171617" fill-rule="nonzero"></path>
    </g>
</svg>